<svg xmlns="http://www.w3.org/2000/svg" viewBox="0 0 1024 1024"><clipPath id="a"><path d="M0 1024h1024V0H0Z" clip-rule="evenodd"/></clipPath><path fill="#fff" fill-rule="evenodd" d="M1024 512C1024 229.23 794.77 0 512 0S0 229.23 0 512s229.23 512 512 512 512-229.23 512-512Z" clip-path="url(#a)"/><clipPath id="b"><path d="M53.532 220.158h535.67v535.669H53.532Z"/></clipPath><g fill="#0078b8" clip-path="url(#b)"><path d="M363.194 335.371H279.54c-10.892 0-19.775 8.861-19.775 19.753v82.672c0 10.892 8.86 19.775 19.775 19.775h83.654c10.892 0 19.775-8.883 19.775-19.798v-82.649c0-10.87-8.883-19.753-19.775-19.753Zm1.897 102.402a1.9 1.9 0 0 1-1.897 1.92H279.54a1.896 1.896 0 0 1-1.897-1.897v-82.672c0-1.049.848-1.875 1.897-1.875h83.654c1.049 0 1.897.826 1.897 1.875v82.65Z"/><path d="M505.392 396.393v-117c0-10.891-8.861-19.774-19.776-19.774h-66.78c-10.892 0-19.775 8.86-19.775 19.775v10.69l-63.744-63.722c-7.41-7.499-20.534-7.477-27.944-.022L59.693 473.976c-5.625 5.669-7.3 14.106-4.241 21.538a19.687 19.687 0 0 0 18.257 12.209h38.278V735.47c0 10.892 8.861 19.776 19.775 19.776h206.813c4.933 0 8.928-4.018 8.928-8.928 0-4.91-4.017-8.928-8.928-8.928H131.762a1.896 1.896 0 0 1-1.897-1.897v-227.77h439.137c7.968 0 15.155-4.799 18.235-12.209a19.727 19.727 0 0 0-4.263-21.56l-77.582-77.561Zm-86.556-118.896h66.78c1.027 0 1.898.87 1.898 1.897v99.12l-70.575-70.574v-28.546c0-1.05.848-1.897 1.897-1.897Zm150.166 212.348H73.71l-1.361-3.259 247.657-247.613h.29c.692 0 2.366.022 2.366 0l79.012 78.989 88.452 88.452 80.618 82.248a1.834 1.834 0 0 1-1.74 1.183Z"/><path d="m581.836 617.446-64.012-14.508-32.43-55.509c-1.585-2.723-4.755-4.642-7.723-4.419a8.934 8.934 0 0 0-7.678 4.375l-33.547 56.379-62.807 13.726a8.883 8.883 0 0 0-6.584 5.937c-.982 3.013-.335 6.294 1.763 8.683l43.256 49.326-6.384 63.99a8.893 8.893 0 0 0 3.616 8.08 8.725 8.725 0 0 0 5.267 1.74 8.845 8.845 0 0 0 3.527-.736l60.33-25.89 58.856 25.823c1.16.491 2.366.759 3.594.759.156-.022.312 0 .446 0 4.955 0 8.928-4.018 8.928-8.928a8.933 8.933 0 0 0-.737-3.549l-5.78-62.65 42.786-47.965a8.983 8.983 0 0 0 1.83-8.683 8.886 8.886 0 0 0-6.517-5.981Zm-52.585 52.049c-2.477 2.812-3.75 6.584-3.437 10.468l4.799 52.049-46.514-20.422c-1.786-.804-3.66-1.228-5.625-1.228-1.227 0-4.352.67-5.468 1.16l-48.01 20.624 5.045-50.576c.446-3.817-.781-7.678-3.326-10.602l-34.461-39.282 49.75-10.87c3.683-.781 6.941-3.125 8.906-6.406l26.694-44.884 25.667 43.97c1.92 3.258 5.111 5.601 8.861 6.472l50.978 11.561-33.859 37.966Z"/></g><path fill="#3a4136" d="M624.558 297.36c0-2.049.125-3.944.373-5.685.23-1.742.594-3.618 1.091-5.627h11.254v4.65c0 2.584.163 4.862.488 6.833.326 1.99.852 3.666 1.58 5.024.727 1.36 1.693 2.393 2.899 3.101 1.225.69 2.708 1.034 4.45 1.034 2.775 0 4.89-.756 6.345-2.268 1.454-1.532 2.182-3.752 2.182-6.661 0-1.493-.096-2.861-.288-4.105a17.562 17.562 0 0 0-1.062-3.733c-.516-1.244-1.206-2.545-2.067-3.904-.861-1.359-1.962-2.88-3.301-4.565l-15.13-18c-2.699-3.446-4.775-6.91-6.23-10.393-1.455-3.503-2.182-7.235-2.182-11.197 0-3.177.488-6.096 1.464-8.756.995-2.641 2.431-4.929 4.307-6.862 1.875-1.933 4.182-3.426 6.919-4.478 2.756-1.072 5.866-1.608 9.33-1.608 4.23 0 7.752.603 10.565 1.809 2.833 1.186 5.091 2.756 6.775 4.708 1.685 1.933 2.871 4.105 3.56 6.517a26.326 26.326 0 0 1 1.034 7.263c0 2.048-.163 3.943-.488 5.685a234.39 234.39 0 0 1-1.091 5.742h-11.197v-4.536c0-5.072-.737-8.967-2.21-11.685-1.455-2.718-3.828-4.077-7.12-4.077-2.718 0-4.747.766-6.087 2.297-1.358 1.512-2.038 3.531-2.038 6.058 0 1.359.105 2.574.316 3.646a15.42 15.42 0 0 0 .89 3.014c.402.919.88 1.809 1.435 2.67a38.968 38.968 0 0 0 1.895 2.67l16.881 20.412c3.062 4 5.417 7.848 7.063 11.541 1.646 3.675 2.469 7.57 2.469 11.685 0 3.407-.527 6.47-1.58 9.187-1.071 2.737-2.602 5.053-4.593 6.948-1.971 1.914-4.364 3.387-7.177 4.42-2.795 1.015-5.953 1.522-9.474 1.522-4.326 0-7.924-.574-10.795-1.722-2.852-1.168-5.13-2.699-6.833-4.593a16.427 16.427 0 0 1-3.588-6.518 27.236 27.236 0 0 1-1.034-7.464Zm57.304 19.407v-95.774h18.948l9.216 37.063a159.722 159.722 0 0 1 2.296 11.742 1313.14 1313.14 0 0 0 1.608 10.537h.46c.516-3.292 1.062-6.805 1.636-10.537.555-3.713 1.32-7.627 2.297-11.742l9.474-37.063h18.546v95.774h-13.551V285.1c0-4.861.038-9.54.115-14.039.095-4.478.22-8.593.373-12.345.153-3.77.325-7.09.517-9.962.172-2.87.335-5.148.488-6.832h-1.062l-14.47 62.528h-9.187l-14.584-62.528h-1.062c.153 1.684.325 3.961.516 6.832.173 2.871.335 6.192.488 9.962a660.232 660.232 0 0 1 .517 26.384v31.667h-13.58Zm73.725 0 17.685-95.774h16.709l17.713 95.774h-14.699l-2.641-17.14H772.87l-2.526 17.14h-14.757Zm18.977-28.078h14.125l-6.747-47.715h-.603l-6.775 47.715Zm42.375 28.078v-95.774H832.7c1.8 0 3.77.076 5.914.23 2.144.152 4.297.516 6.46 1.09a25.007 25.007 0 0 1 6.2 2.613c2.01 1.167 3.79 2.756 5.34 4.765 1.551 2.03 2.795 4.565 3.733 7.608.938 3.044 1.407 6.728 1.407 11.053v2.412c0 7.292-1.053 13.235-3.158 17.828-2.086 4.575-5.168 7.867-9.245 9.876l15.36 38.299h-15.36l-12.718-35.83h-5.455v35.83h-14.24Zm14.24-46.308h2.181c2.546 0 4.7-.278 6.46-.833 1.76-.574 3.177-1.522 4.249-2.842 1.09-1.32 1.885-3.082 2.383-5.283.478-2.182.717-4.88.717-8.096v-7.55c0-2.47-.23-4.603-.689-6.402-.44-1.8-1.196-3.273-2.268-4.422-1.052-1.167-2.459-2.028-4.22-2.583-1.76-.575-3.971-.862-6.632-.862h-2.182v38.873Zm53.399 46.308v-84.32H869.16v-11.454h45.303v11.455h-15.36v84.319h-14.526Zm-260.02 137.244V337.478h17.676v48.8h20.924v-48.8h17.675v116.533h-17.675v-53.83h-20.924v53.83h-17.676ZM726.7 455.06c-1.863 0-3.889-.151-6.078-.454-2.19-.303-4.355-.931-6.497-1.886-2.12-.955-4.169-2.306-6.148-4.052-1.98-1.747-3.738-4.052-5.275-6.917-1.514-2.864-2.725-6.404-3.633-10.62-.908-4.214-1.362-9.233-1.362-15.055v-41.254c0-5.869.465-10.888 1.397-15.056.931-4.169 2.166-7.673 3.703-10.515 1.56-2.84 3.33-5.1 5.31-6.776 1.979-1.677 4.04-2.958 6.182-3.843 2.166-.908 4.32-1.49 6.463-1.746 2.142-.28 4.122-.42 5.938-.42 1.723 0 3.645.128 5.764.385 2.119.233 4.238.78 6.357 1.641 2.096.839 4.146 2.085 6.148 3.738 2.003 1.654 3.785 3.9 5.345 6.742 1.537 2.841 2.771 6.37 3.703 10.584.931 4.215 1.397 9.304 1.397 15.266v41.254c0 5.776-.477 10.748-1.432 14.916-.955 4.169-2.2 7.697-3.738 10.584-1.56 2.888-3.353 5.205-5.38 6.952-2.025 1.747-4.086 3.109-6.182 4.087-2.12.978-4.227 1.63-6.323 1.956-2.096.326-3.982.49-5.659.49Zm0-13.309c1.723 0 3.237-.303 4.541-.908 1.281-.582 2.352-1.607 3.214-3.074.838-1.444 1.467-3.365 1.886-5.764.443-2.375.664-5.38.664-9.012v-53.027c0-3.726-.221-6.847-.664-9.362-.419-2.491-1.048-4.494-1.886-6.008-.862-1.537-1.933-2.62-3.214-3.249-1.304-.652-2.818-.978-4.54-.978-1.77 0-3.32.326-4.647.978-1.327.63-2.422 1.712-3.283 3.249-.862 1.514-1.503 3.517-1.922 6.008-.442 2.515-.663 5.636-.663 9.362v53.027c0 3.633.22 6.637.663 9.012.42 2.399 1.06 4.32 1.922 5.764.861 1.467 1.956 2.492 3.283 3.074 1.327.605 2.876.908 4.646.908Zm45.447 12.261V337.478H795.2l11.178 45.097c1.187 5.007 2.119 9.77 2.794 14.288a947.382 947.382 0 0 0 1.991 12.82h.524a947.305 947.305 0 0 0 1.992-12.82c.675-4.518 1.606-9.28 2.794-14.288l11.528-45.097h22.6v116.533H834.08v-38.53a803.797 803.797 0 0 1 .629-32.102c.163-4.588.36-8.628.593-12.121.233-3.494.443-6.265.63-8.314h-1.293l-17.606 76.081H805.82l-17.71-76.081h-1.293c.163 2.05.36 4.82.594 8.314.233 3.493.442 7.533.628 12.12.187 4.565.327 9.572.42 15.022.116 5.472.174 11.166.174 17.081v38.53h-16.487Zm98.368 0V337.478h43.176v13.938h-25.5v34.862h19.7v13.903h-19.7v39.927h26.198v13.903h-43.874Zm-233.299 99.156v-69.227h-12.658v-9.405h37.195v9.405h-12.61v69.227h-11.927Zm32.598 0v-78.632h11.927v32.928h14.119v-32.928h11.927v78.632H695.86v-36.322h-14.12v36.322h-11.926Zm68.921.707a30.08 30.08 0 0 1-4.101-.306 16.183 16.183 0 0 1-4.384-1.273c-1.43-.644-2.813-1.556-4.149-2.734-1.336-1.179-2.522-2.734-3.56-4.667-1.02-1.933-1.838-4.322-2.45-7.166-.613-2.844-.92-6.23-.92-10.159v-27.837c0-3.96.315-7.346.943-10.159.629-2.813 1.462-5.178 2.499-7.095 1.052-1.917 2.247-3.441 3.582-4.572 1.32-1.132 2.711-1.996 4.172-2.593 1.462-.613 2.915-1.006 4.361-1.179a31.142 31.142 0 0 1 4.007-.283c1.163 0 2.46.087 3.89.26 1.43.157 2.851.526 4.266 1.108 1.43.565 2.82 1.406 4.172 2.522 1.351 1.115 2.553 2.632 3.606 4.549 1.037 1.917 1.87 4.298 2.498 7.142.629 2.844.943 6.277.943 10.3v27.837c0 3.897-.322 7.252-.966 10.065-.644 2.813-1.485 5.193-2.522 7.142-1.053 1.948-2.263 3.512-3.63 4.69-1.367 1.18-2.758 2.098-4.172 2.758-1.43.66-2.852 1.1-4.266 1.32-1.415.22-2.687.33-3.819.33Zm0-8.98c1.163 0 2.184-.205 3.064-.613.865-.393 1.58-1.084 2.145-2.074.582-.975 1.014-2.27 1.297-3.89.298-1.602.447-3.63.447-6.08v-35.781c0-2.514-.149-4.62-.447-6.317-.283-1.682-.715-3.033-1.297-4.054-.566-1.037-1.28-1.768-2.145-2.192-.88-.44-1.901-.66-3.064-.66-1.194 0-2.24.22-3.135.66-.896.424-1.634 1.155-2.216 2.192-.581 1.021-1.013 2.372-1.296 4.054-.298 1.697-.448 3.803-.448 6.317v35.78c0 2.452.15 4.479.448 6.082.283 1.618.715 2.914 1.296 3.889.582.99 1.32 1.681 2.216 2.074.896.408 1.94.613 3.135.613Zm30.666 8.273v-78.632h15.556l7.543 30.43c.801 3.378 1.43 6.592 1.886 9.64.455 3.065.903 5.948 1.343 8.65h.354c.44-2.702.888-5.585 1.343-8.65a116.514 116.514 0 0 1 1.886-9.64l7.778-30.43h15.25v78.632h-11.148V527.17a542.567 542.567 0 0 1 .424-21.662 255.365 255.365 0 0 1 .825-13.789h-.872l-11.88 51.337h-7.566l-11.95-51.337h-.896c.126 1.383.267 3.253.424 5.61.157 2.357.299 5.083.424 8.179.11 3.08.205 6.458.283 10.135.079 3.693.118 7.535.118 11.527v25.998h-11.125Zm60.53 0 14.496-78.632h13.718l14.543 78.632h-12.045l-2.168-14.072h-14.379l-2.05 14.072H829.93Zm15.556-23.052h11.597l-5.516-39.175h-.518l-5.563 39.175Zm31.774 7.118c0-1.681.094-3.237.282-4.667.205-1.43.503-2.97.896-4.62h9.263v3.819c0 2.121.134 3.991.401 5.61.252 1.634.676 3.009 1.273 4.125.597 1.115 1.399 1.964 2.404 2.545.99.566 2.208.849 3.654.849 2.278 0 4.015-.621 5.209-1.862 1.194-1.257 1.791-3.08 1.791-5.469a20.13 20.13 0 0 0-.26-3.37 12.791 12.791 0 0 0-.871-3.065c-.409-1.021-.967-2.09-1.674-3.205-.707-1.116-1.61-2.365-2.71-3.748l-12.446-14.779c-2.2-2.828-3.897-5.673-5.091-8.532-1.21-2.876-1.815-5.94-1.815-9.193 0-2.609.409-5.005 1.226-7.19.817-2.168 1.995-4.045 3.535-5.633 1.525-1.587 3.418-2.812 5.68-3.677 2.248-.88 4.801-1.32 7.661-1.32 3.473 0 6.364.495 8.674 1.485 2.326.975 4.173 2.263 5.54 3.866a13.854 13.854 0 0 1 2.922 5.35 21.07 21.07 0 0 1 .872 5.964c0 1.681-.133 3.237-.4 4.667a865.72 865.72 0 0 1-.896 4.714h-9.216v-3.724c0-4.164-.597-7.362-1.791-9.593-1.195-2.232-3.143-3.347-5.846-3.347-2.231 0-3.905.628-5.02 1.885-1.1 1.242-1.65 2.9-1.65 4.974 0 1.115.086 2.113.259 2.993.157.896.4 1.72.73 2.475.315.754.708 1.485 1.179 2.192a31.87 31.87 0 0 0 1.556 2.192l13.86 16.76c2.514 3.283 4.446 6.442 5.798 9.475 1.351 3.017 2.027 6.214 2.027 9.593 0 2.797-.44 5.311-1.32 7.543-.865 2.247-2.114 4.148-3.748 5.704-1.619 1.571-3.583 2.781-5.893 3.63-2.294.832-4.887 1.249-7.778 1.249-3.551 0-6.506-.472-8.863-1.414-2.341-.959-4.211-2.216-5.61-3.772a13.489 13.489 0 0 1-2.946-5.35 22.364 22.364 0 0 1-.848-6.129ZM624.558 755.902V572.767h30.138c3.44 0 7.21.147 11.309.44a65.47 65.47 0 0 1 12.297 2.085c4.135 1.098 8.106 2.764 11.912 4.996 3.843 2.196 7.247 5.233 10.21 9.113 2.965 3.843 5.344 8.673 7.138 14.492 1.793 5.856 2.69 12.92 2.69 21.19v4.612c0 13.943-2.013 25.289-6.04 34.036-3.988 8.746-9.88 15.06-17.676 18.939l29.37 73.232h-29.37l-24.319-68.511h-10.43v68.51h-27.229Zm27.229-88.548h4.172c4.867 0 8.985-.55 12.352-1.647 3.367-1.061 6.075-2.855 8.124-5.38 2.086-2.562 3.587-5.929 4.502-10.101.951-4.172 1.427-9.332 1.427-15.48v-14.493c0-4.722-.44-8.784-1.317-12.187-.842-3.44-2.288-6.277-4.337-8.51-2.013-2.195-4.703-3.842-8.07-4.94-3.367-1.061-7.594-1.592-12.681-1.592h-4.172v74.33Zm85.144 88.548V572.767h67.852v21.849h-40.074v54.787h30.961v21.903h-30.96v62.747h41.172v21.849h-68.95Zm88.987 0V572.767h27.778v76.636h32.882v-76.636h27.778v183.135h-27.778v-84.596h-32.882v84.596h-27.778Z"/></svg>